<svg width="1025" height="769" viewBox="0 0 1025 769" fill="none" xmlns="http://www.w3.org/2000/svg">
<path fill-rule="evenodd" clip-rule="evenodd" d="M285.952 455.309C290.621 452.127 300.168 440.737 305.17 438.105C316.293 432.252 365.845 420.746 367.456 420.066C369.91 419.031 385.851 415.413 395.139 413.128C416.948 407.76 495.104 373.092 515.704 364.203C518.334 371.123 540.044 401.671 536.32 404.802C524.058 415.109 502.079 427.943 487.875 435.329C476.387 441.303 464.219 446.247 451.935 450.283C437.988 454.867 428.416 459.781 414.516 464.469C400.841 469.082 417.184 483.509 424.207 486.49C432.084 489.834 444.285 491.531 452.334 494.429C438.163 516.454 426.262 543.185 423.881 569.568C423.308 575.917 418.468 581.738 410.595 579.837C406.533 578.856 369.049 573.864 362.937 572.47C322.134 563.165 248.885 514.436 267.748 464.469C272.069 466.465 281.935 458.047 285.952 455.309Z" fill="#FF5678"/>
<path fill-rule="evenodd" clip-rule="evenodd" d="M308.78 190.203C311.828 189.946 319.71 183.857 315.574 180.777C311.402 177.67 308.404 188.083 308.78 190.203ZM149.994 213.556C150.791 213.415 150.443 209.055 149.189 208.498C145.229 206.74 144.895 213.347 144.798 215.115C144.678 217.346 144.398 223.631 149.213 221.908C151.946 220.93 150.25 215.228 149.994 213.556ZM383.749 233.926C383.642 237.818 391.505 245.302 394.436 240.813C396.902 237.041 383.951 226.178 383.749 233.926ZM105.749 146.147C108.027 151.959 119.294 144.039 119.713 139.776C120.572 131.046 105.631 140.339 105.749 146.147ZM199.748 171.203C204.995 170.772 211.899 164.101 216.959 161.609C220.383 159.923 229.7 157.913 230.713 154.084C231.595 150.757 215.787 157.878 214.437 158.511C208.236 161.416 202.645 164.728 199.748 171.203ZM593.646 125.203C597.828 121.969 602.912 119.883 608.273 120.02C610.95 120.088 616.535 121.763 616.745 117.133C617.087 109.605 593.443 118.786 589.748 120.263C591.048 121.911 592.347 123.557 593.646 125.203ZM332.748 418.59C329.68 413.495 324.162 410.549 320.012 406.203C321.533 413.34 318.104 419.688 315.748 426.203C321.416 423.665 327.081 421.128 332.748 418.59ZM865.554 527.203C867.245 521.544 868.938 515.917 870.915 510.345C873.127 504.105 874.227 503.566 868.932 499.203C864.538 507.508 860.143 515.814 855.748 524.121C858.877 525.451 862.142 526.745 865.554 527.203ZM410.748 117.568C404.93 111.01 377.662 110.598 381.036 125.072C382.214 130.126 388.918 124.757 393.117 123.579C397.285 122.409 409.087 122.254 410.748 117.568ZM409.748 210.418C409.043 208.744 407.635 202.703 405.545 202.227C403.509 201.763 395.475 208.099 393.965 209.066C386.432 213.893 379.089 219.086 371.748 224.203C374.559 224.203 377.111 223.202 379.905 223.181C383.225 223.152 385.606 224.516 388.843 223.738C395.798 222.068 403.87 214.361 409.748 210.418ZM417.285 60.7736C417.938 57.7739 452.03 66.7787 456.127 68.4276C458.359 69.3244 469.877 75.3113 467.402 66.2881C465.993 61.1489 452.684 57.2313 448.419 55.8228C437.576 52.2439 426.144 49.6982 414.599 50.2886C412.357 50.4024 395.378 51.3822 402.468 58.2068C404.911 60.5571 413.668 59.8163 417.285 60.7736ZM424.748 472.916C431.1 476.041 437.585 478.431 444.224 480.875C447.173 481.961 451.768 484.803 455.021 484.089C457.686 483.503 458.54 479.445 459.94 476.729C465.058 466.791 471.17 458.774 478.748 450.58C475.229 448.014 457.367 459.334 452.947 461.005C448.522 462.678 444.348 464.363 440.017 466.362C435.94 468.244 427.895 469.927 424.748 472.916ZM537.212 388.203C546.469 384.014 555.243 376.586 562.835 369.935C571.552 362.299 579.367 354.296 585.748 344.414C581.908 344.61 573.43 356.962 573.335 343.514C573.286 336.654 582.687 329.897 585.605 323.534C578.347 319.436 571.694 343.922 563.366 337.987C555.343 332.268 568.002 312.605 570.441 306.401C565.735 303.27 538.923 338.316 535.042 342.8C532.615 345.607 526.875 349.344 525.505 352.618C524.689 354.568 524.572 360.753 524.967 362.546C525.788 366.295 529.947 370.785 531.799 374.276C534.143 378.696 536.184 383.289 537.212 388.203ZM919.904 514.555C911.899 503.256 920.168 498.328 926.677 488.95C931.883 481.448 936.672 473.179 939.972 464.801C948.225 443.848 955.672 424.368 959.748 402.203C954.139 404.764 950.632 414.509 947.826 419.644C944.052 426.548 940.733 433.794 936.539 440.483C928.691 452.999 920.986 466.351 911.003 477.2C906.48 482.117 902.651 487.648 897.432 492.078C895.048 494.102 890.487 495.763 888.73 498.294C887.072 500.683 888.927 502.21 888.297 505.064C887.651 507.992 884.689 511.114 883.418 513.933C881.749 517.636 880.194 521.348 878.331 524.969C876.299 528.918 875.744 530.983 875.196 534.842C874.597 539.062 876.433 539.5 872.748 543.388C879.426 546.333 886.104 549.277 892.781 552.221C895.034 553.216 897.288 554.209 899.542 555.203C900.017 554.312 900.492 553.422 900.967 552.531C902.802 550.749 904.49 546.354 905.539 543.999C909.927 534.175 914.882 524.312 919.904 514.555ZM275.069 467.122C256.108 517.041 322.737 559.073 363.752 568.369C369.433 569.656 374.977 571.341 380.632 572.724C386.798 574.231 392.273 573.931 398.428 574.562C403.324 575.063 405.658 578.846 410.272 579.889C417.982 581.631 417.511 575.836 418.063 569.628C420.404 543.303 433.839 517.904 448.058 495.938C441.563 493.614 435.127 491.078 428.715 488.534C423.228 486.356 414.827 480.234 408.928 479.91C404.566 479.672 397.918 483.397 393.681 485.032C386.625 487.755 379.548 490.074 372.194 491.931C359.334 495.178 345.024 499.604 331.717 499.939C327.88 500.036 317.356 501.823 314.596 499.452C309.332 494.931 316.638 491.163 321.045 489.549C347.31 479.931 375.197 475.842 401.536 465.981C415.09 460.906 428.504 455.239 442.143 450.239C453.9 445.93 466.214 442.115 477.576 436.814C492.581 429.816 507.65 421.098 520.643 410.827C523.244 408.772 528.693 405.719 530.475 402.741C532.045 400.119 531.849 402.734 531.523 399.555C531.289 397.272 528.495 394.177 527.346 392.02C523.064 383.977 519.194 375.715 515.941 367.203C495.215 376.093 475.497 388.193 455.076 397.693C434.522 407.256 411.337 414.002 389.348 419.382C379.989 421.672 369.23 422.396 360.647 426.921C357 428.843 353.395 431.067 349.489 432.179C348.335 434.392 347.2 434.826 346.081 433.48C345.38 432.693 344.474 432.361 343.362 432.483C340.973 432.888 338.536 434.016 336.302 434.883C324.993 439.267 314.164 444.757 303.428 450.359C298.339 453.012 293.119 455.626 288.249 458.657C285.639 460.282 283.3 461.92 281.164 464.151C278.603 466.826 279.213 469.025 275.069 467.122ZM701.728 170.733C706.52 170.811 710.887 168.215 715.884 168.36C723.741 168.587 729.961 174.679 734.521 180.554C743.545 192.178 741.244 206.201 736.711 219.21C734.542 225.427 731.564 231.395 727.844 236.837C724.55 241.655 718.661 246.212 716.362 251.576C712.571 260.423 720.22 256.661 724.904 254.772C730.792 252.394 736.313 249.439 741.311 245.458C763.588 227.716 780.534 203.055 786.211 174.733C788.98 160.915 788.767 144.761 779.141 133.483C770.341 123.17 755.15 119.801 742.164 121.713C728.127 123.781 715.405 129.727 703.975 137.38C700.655 139.604 697.615 142.032 694.498 144.519C690.408 147.782 687.957 147.867 688.981 152.981C689.741 156.783 691.811 160.723 693.145 164.371C695.643 171.204 694.732 172.972 701.728 170.733ZM717.005 288.534L716.035 290.191C722.719 290.509 728.944 284.613 734.639 281.735C742.037 277.994 748.606 272.891 755.089 267.738C766.521 258.649 778.103 248.406 786.612 236.474C805.689 209.727 823.017 175.816 817.811 141.904C812.201 105.355 780.233 91.2862 746.17 96.1246C730.819 98.3048 717.114 105.158 703.376 112.116C696.451 115.623 690.607 120.174 684.263 124.578C680.971 126.865 677.967 127.162 677.752 131.16C677.59 134.173 682.799 140.987 684.207 143.717C701.456 126.121 720.045 111.564 746.094 110.664C777.084 109.594 795.409 138.978 795.273 167.116C795.14 194.711 783.238 221.255 764.265 241.087C755.643 250.1 747.422 257.332 736.834 263.91C731.556 267.189 727.663 270.133 721.762 272.31C717.588 273.851 718.023 273.039 716.958 276.903C716.053 280.182 716.977 285.129 717.005 288.534ZM548.614 663.444C548.21 668.417 547.2 673.313 546.075 678.163C545.671 679.905 543.396 685.404 543.795 687.362C544.454 690.599 543.577 688.518 546.413 690.206C549.371 691.969 552.815 691.863 556.054 692.398C558.053 692.729 565.378 696.176 566.61 695.632C568.764 694.68 568.696 691.324 571.059 689.994C574.279 688.18 579.024 689.734 582.061 691.153C590.182 694.94 595.761 702.781 603.618 707.073C617.572 714.694 634.13 718.913 649.697 720.654C658.131 721.597 666.761 723.252 675.09 721.276C681.652 719.719 690.181 719.862 693.748 712.821C662.047 704.103 613.661 693.434 601.127 657.054C594.313 663.232 582.926 659.905 574.692 659.052C565.633 658.114 557.538 658.332 549.253 654.203C548.647 657.449 548.462 660.143 548.614 663.444ZM267.933 438.126C282.856 439.027 297.004 431.965 306.187 420.05C308.448 417.115 310.766 414.12 312.123 410.643C312.418 409.762 312.711 408.88 313.005 407.999C314.43 405.566 313.806 404.418 311.135 404.555C309.63 402.491 305.814 401.797 306.9 398.056C307.717 395.234 310.734 395.188 313.356 394.3C312.05 392.106 311.269 391.005 309.4 389.054C304.543 393.423 295.728 401.999 292.315 391.961C290.675 387.142 293.561 382.536 292.846 377.888C292.552 375.965 290.115 371.054 288.702 369.905C281.179 363.78 270.344 366.315 262.362 369.92C256.861 372.405 255.677 373.571 254.78 379.267C253.869 385.059 253.023 390.849 252.012 396.624C255.313 394.904 255.914 391.188 258.067 388.512C258.873 389.98 259.68 391.45 260.489 392.918C261.625 392.281 262.686 392.314 263.67 393.02C265.263 395.469 264.261 399.101 263.771 401.668C269.083 401.173 271.328 407.099 265.973 409.499C260.426 411.985 257.924 405.207 257.736 400.817C255.666 403.289 253.54 401.966 252.097 403.236C250.656 404.506 250.088 407.153 249.575 410.052C248.732 414.815 246.575 421.687 248.571 426.465C251.534 433.562 260.981 437.255 267.933 438.126ZM700.359 210.178C695.422 217.045 687.003 226.034 685.242 234.33C690.681 231.139 702.18 215.782 705.142 228.015C706.843 235.037 698.121 243.404 695.978 250.203C704.555 247.381 710.664 238.543 716.016 231.722C722.84 223.025 729.807 211.561 731.549 200.502C732.958 191.553 726.75 183.212 717.526 182.335C712.814 181.887 707.894 182.635 703.342 183.728C701.266 184.225 698.17 184.843 696.317 185.955C693.991 187.352 693.673 190.622 691.481 187.902C688.57 193.389 685.659 198.876 682.748 204.361C685.645 203.31 691.557 198.848 694.723 199.309C699.347 199.984 700.297 206.7 700.359 210.178ZM238.029 75.8478C225.084 76.2294 211.553 78.986 199.298 83.0838C196.255 84.1023 183.416 87.7245 186.12 92.9754C187.907 96.4461 197.542 91.5417 200.455 90.7238C212.939 87.218 225.793 84.9061 238.58 82.7962C241.676 82.2855 252.179 82.336 252.721 78.2775C253.385 73.3254 241.685 75.8422 238.029 75.8478ZM590.342 640.669C583.325 641.526 576.588 641.206 569.565 640.346C563.654 639.623 557.635 637.203 551.754 637.203C551.754 643.498 551.327 643.538 557.969 644.885C562.605 645.826 567.307 646.354 571.992 647.01C580.241 648.163 589.398 651.401 597.748 649.737C597.546 648.644 596.906 641.267 596.041 640.537C595.554 640.127 591.05 640.676 590.342 640.669ZM476.939 174.88C478.901 176.13 483.411 181.115 485.748 181.203C484.914 175.432 478.475 165.384 471.081 168.95C469.269 169.825 465.463 174.179 467.185 176.1C468.104 177.127 474.535 174.887 476.939 174.88ZM408.53 226.22C408.601 225.214 408.674 224.208 408.748 223.203C406.035 224.798 402.676 225.553 400.748 228.123C403.063 229.149 405.376 230.176 407.692 231.203C407.971 229.542 408.251 227.881 408.53 226.22ZM622.206 379.438C635.025 383.927 646.777 389.923 656.213 400.1C664.369 408.901 668.202 424.407 670.193 435.943C675.119 464.489 665.613 490.948 659.345 518.256C656.165 532.109 651.418 545.44 646.973 558.935C643.092 570.719 639.764 583.06 634.407 594.265C629.865 603.766 624.062 613.133 620.066 622.989C617.916 628.293 614.431 646.495 606.269 640.779C604.042 646.602 603.501 646.106 605.882 650.151C607.605 653.079 613.45 657.145 616.209 659.529C623.559 665.885 632.869 671.123 641.492 675.573C657.286 683.724 674.216 689.823 690.481 697.254C697.672 700.542 705.47 704.425 703.856 713.832C702.504 721.718 697.942 727.698 690.825 731.206C684.143 734.501 674.586 737.045 667.235 738.078C662.874 738.692 661.874 736.877 658.318 736.249C654.361 735.552 649.743 736.901 645.66 736.866C627.334 736.706 611.289 732.095 596.479 721.468C591.187 717.67 583.397 707.368 576.471 707.369C572.931 707.369 573.678 709.52 570.564 710.782C566.721 712.338 560.099 709.4 556.321 708.71C548.272 707.241 540.087 705.749 534.727 698.816C528.932 691.324 530.992 682.043 533.482 673.723C536.289 664.344 541.012 654.829 543.019 645.308C543.508 642.992 543.958 638.675 543.462 636.319C542.69 632.663 538.999 630.482 538.888 626.523C538.854 625.319 540.577 623.731 540.879 622.488C541.544 619.758 541.441 616.926 541.715 614.148C542.204 609.192 543.334 604.444 544.114 599.546C545.886 588.401 549.381 578.459 552.764 567.721C556.046 557.299 559.17 549.543 565.516 540.519C568.801 535.846 579.791 519.195 574.424 514.403C567.079 528.831 558.49 540.083 547.248 551.569C538.651 560.355 530.245 572.165 519.484 578.422C507.653 585.302 493.195 589.349 480.13 592.987C473.916 594.716 468.76 598.552 462.061 599.262C454.801 600.029 447.412 599.124 440.301 597.505C438.3 597.05 432.527 593.974 430.716 594.17C428.048 594.46 424.21 599.216 421.282 600.089C414.155 602.215 409.288 598.154 403.882 594.401C398.015 590.327 396.24 589.315 389.47 588.824C381.178 588.225 373.114 585.302 364.958 583.512C350.618 580.366 338.429 573.99 325.395 567.315C310.454 559.666 297.674 549.117 286.412 536.655C269.857 518.334 246.801 467.567 273.845 449.792C257.924 447.63 243.343 440.677 241.402 422.658C240.388 413.229 242.297 402.784 244.668 393.695C245.75 389.545 247.04 385.421 248.276 381.314C249.207 379.927 249.7 378.41 249.751 376.76C250.322 374.623 249.499 373.558 247.28 373.568C243.087 368.665 239.934 364.337 239.087 357.375C238.82 355.169 238.581 351.787 240.151 349.911C240.877 349.157 241.754 348.653 242.777 348.4C245.235 348.541 245.929 347.33 244.861 344.769C246.054 341.141 244.284 338.314 248.781 336.8C250.222 337.106 251.657 337.442 253.086 337.805C254.91 338.637 256.096 338.034 256.648 336.003C260.884 334.345 258.93 331.894 264.686 334.027C268.169 335.318 271.483 337.541 274.02 340.249C277.202 338.206 269.965 325.581 269.724 321.553C269.151 312.058 273.077 304.208 278.184 296.409C288.111 281.253 301.967 268.221 315.631 256.495C341.803 234.039 369.298 212.661 398.85 194.77C386.659 186.303 372.416 184.008 357.91 187.943C344.537 191.571 333.697 198.16 321.387 203.923C309.983 209.26 297.878 211.453 294.242 196.888C290.168 180.573 303.166 174.516 314.825 167.2C311.914 165.029 302.33 166.581 298.705 166.838C290.631 167.409 282.909 169.232 275.063 170.844C271.3 171.616 267.843 171.442 264.115 172.199C258.573 173.324 252.786 174.584 247.179 176.187C233.839 180.002 220.598 185.792 209.071 193.594C199.108 200.334 192.196 209.851 184.169 218.616C175.015 228.61 166.243 238.444 152.672 242.102C146.317 243.816 138.862 245.371 134.357 239.695C130.165 234.417 129.931 228.056 130.069 221.603C130.372 207.348 137.258 191.945 145.268 180.297C153.963 167.653 165.609 160.412 176.612 150.235C160.708 151.372 145.338 159.755 130.712 165.55C127.634 166.77 124.527 168.141 121.432 169.269C118.132 170.473 115.946 169.736 112.784 170.287C105.569 171.546 99.3706 174.587 92.3521 169.739C79.0735 160.568 92.3771 141.911 101.52 136.186C114.254 128.213 127.209 121.5 141.238 115.813C133.643 107.575 140.129 95.819 147.13 89.9749C155.987 82.5798 167.266 78.3422 177.939 74.3836C186.379 71.2526 194.669 68.2465 203.437 66.3623C212.655 64.3823 223.433 61.3568 232.786 61.647C241.558 61.9192 249.336 60.3738 258.22 60.1266C265.612 59.9211 273.021 60.0989 280.412 59.9073C300.298 59.3935 320.257 60.7348 339.692 62.1649C324.294 17.1364 425.721 31.0421 447.36 36.9237C467.025 42.2694 489.557 48.4703 506.075 61.1541C513.073 66.5262 519.719 72.6341 525.928 78.9017C535.088 88.149 540.159 100.259 545.004 112.212C557.294 106.192 569.044 99.6318 582.491 96.6465C595.286 93.8071 608.393 89.9582 621.263 87.813C631.048 86.1815 645.251 85.0749 653.486 91.984C662.43 99.4887 667.09 111.167 672.429 121.168C698.069 96.8395 726.668 79.0905 763.225 80.2708C798.997 81.426 822.52 112.317 826.857 145.791C831.634 182.677 815.203 221.219 792.931 249.783C782.944 262.593 772.61 274.965 759.168 284.522C752.502 289.259 745.47 294.449 738.161 298.148C734.516 299.992 730.531 301.658 726.705 303.077C724.978 303.718 723.2 304.36 721.404 304.795C716.276 306.039 717.272 304.378 715.365 308.867C713.818 312.512 714.008 318.783 713.345 322.783C712.588 327.355 712.138 331.99 711.033 336.5C709.117 344.317 707.123 351.942 704.724 359.576C700.182 374.023 694.07 388.584 686.584 401.763C692.933 404.52 701.824 404.798 708.609 405.634C715.952 406.537 723.306 408.437 730.934 410.57C746.218 414.843 759.876 418.451 774.41 424.849C789.499 431.491 802.947 441.409 817.476 449.303C830.836 456.562 844.341 465.654 856.749 474.368C859.701 476.441 861.529 478.243 863.879 480.869C866.283 483.551 867.048 484.076 869.921 486.4C871.217 487.447 874.984 492.732 876.463 492.926C879.112 493.277 878.705 491.3 880.784 488.54C885.126 482.778 891.182 478.314 895.493 472.406C899.089 467.479 902.84 462.491 906.683 458.254C915.985 448.002 923.692 436.638 930.305 424.348C933.747 417.949 937.371 411.86 941.109 405.821C944.83 399.809 951.445 391.874 958.856 392.229C958.26 389.168 956.367 388.658 959.634 386.786C961.738 385.58 965.834 387.524 967.456 388.748C971.754 391.992 971.938 398.284 971.668 403.011C970.97 415.192 968.422 427.216 964.869 438.734C960.599 452.58 955.247 464.795 949.406 478.01C944.756 488.537 938.982 502.458 927.411 507.262C935.182 518.358 931.45 527.399 926.256 539.179C922.46 547.791 917.446 556.689 909.809 562.388C901.201 568.812 891.864 563.362 882.861 559.116C877.423 556.551 860.794 550.498 864.176 542.605C860.022 542.051 857.409 539.033 853.628 538.105C849.625 537.122 850.313 538.747 846.078 539.357C842.83 539.824 837.973 536.916 834.916 535.875C829.808 534.138 824.716 532.356 819.616 530.6C805.261 525.655 791.148 520.787 776.651 516.826C749.678 509.456 722.372 505.275 695.494 498.694C690.106 497.375 684.749 496.102 679.139 495.045C677.981 494.827 671.97 494.492 671.24 493.252C669.961 491.079 673.893 478.919 674.23 476.441C676.446 460.173 675.722 442.364 672.601 426.282C671.305 419.596 665.516 410.939 665.566 404.413C665.601 400.035 669.48 395.255 671.758 391.289C677.392 381.484 683.295 370.89 687.469 360.686C693.858 345.076 697.772 327.456 700.595 310.738C702.064 302.022 703.775 292.574 704.175 283.757C704.481 277.036 703.929 269.987 704.905 263.104C701.185 263.457 695.922 265.384 692.572 263.321C688.341 260.718 687.205 253.285 687.745 248.846C673.259 251.374 673.74 237.637 674.637 226.894C648.456 226.894 681.985 187.99 686.174 179.636C688.099 175.795 688.042 180.109 687.192 174.169C686.819 171.558 685.034 168.664 684.024 166.263C681.824 161.022 679.445 155.861 676.904 150.776C671.536 140.036 665.455 129.659 658.818 119.653C652.844 123.816 647.459 128.744 642.47 134.031C645.67 125.661 655.449 115.292 651.266 105.788C647.39 96.9784 634.443 97.5893 626.797 99.1999C606.02 103.58 586.094 109.96 566.301 117.347C572.432 120.863 581.819 118.147 587.911 115.459C595.454 112.129 603.566 108.636 611.696 106.872C618.786 105.334 628.098 105.859 626.049 115.409C624.388 123.147 616.82 130.599 611.826 136.385C600.823 149.132 587.026 159 573.474 168.86C558.906 179.459 544.869 190.975 530.117 201.267C503.45 219.873 474.777 236.043 447.225 253.41C432.908 262.434 416.685 269.696 401.158 276.384C384.078 283.741 367.702 291.618 349.982 297.429C340.141 300.657 330.387 303.313 320.717 306.986C314.656 309.287 304.101 313.898 300.096 307.065C291.963 293.187 321.396 274.936 329.462 266.451C335.026 271.855 307.587 291.992 309.735 299.86C311.422 306.043 317.949 298.059 321.101 296.374C326.194 293.65 332.226 292.281 337.345 289.173C347.844 282.799 360.292 275.448 362.689 262.271C361.021 260.511 361.042 258.886 362.752 257.396C363.513 256.491 364.117 255.497 364.562 254.413C365.309 252.342 365.609 249.749 366.009 247.553C367.191 241.064 364.224 234.988 366.997 228.637C350.816 240.897 335.263 254.746 319.903 268.018C306.126 279.923 291.75 295.512 286.687 313.276C286.039 315.552 284.961 318.134 285.079 320.536C285.309 325.252 285.78 324.235 289.579 325.751C293.379 327.268 298.912 327.137 302.998 327.298C305.327 327.388 315.729 324.922 313.661 330.033C312.469 332.98 305.258 332.869 302.676 333.141C296.196 333.825 292.682 333.123 295.752 340.147C297.128 343.295 299.916 345.428 302.103 347.864C308.19 354.643 311.496 365.04 316.284 373.004C321.739 382.077 327.736 390.705 334.107 399.155C336.736 402.641 340.25 409.194 343.895 411.682C347.298 414.005 343.294 413.813 348.947 412.869C351.411 412.459 353.644 410.856 356.001 410.282C370.094 406.849 384.58 402.979 399.154 398.741C417.796 393.32 437.359 388.698 455.145 380.892C471.078 373.897 486.893 365.57 502.993 358.486C507.695 356.419 512.391 355.048 516.045 351.243C520.456 346.651 524.108 340.639 528.176 335.703C535.095 327.306 541.472 318.766 548.919 310.809C554.463 304.888 564.287 293.882 572.108 291.518C586.969 287.029 579.014 309.664 577.093 315.385C580.587 316.178 582.423 311.697 586.523 312.986C591.432 314.53 591.94 321.058 592.554 325.149C592.717 326.239 591.242 328.276 591.69 329.248C591.843 329.579 595.046 331.473 595.664 332.351C597.907 335.54 597.466 339.418 596.616 342.857C592.218 360.672 576.586 373.68 565.09 386.821C570.233 385.848 574.046 382.917 578.901 381.464C583.458 380.101 588.039 380.172 592.632 379.781C597.441 379.372 602.06 377.572 606.98 377.481C612.143 377.385 617.086 378.855 622.206 379.438Z" fill="black"/>
<path fill-rule="evenodd" clip-rule="evenodd" d="M78.4853 219.203C75.6503 221.056 74.8512 222.874 74.7533 227.149C74.7141 228.902 74.835 235.443 77.2854 235.196C79.5849 234.965 78.4853 221.452 78.4853 219.203ZM63.8405 229.856C65.1615 216.155 70.1741 202.224 81.966 193.687C84.8822 191.576 88.1811 191.651 91.3772 190.319C93.298 189.519 96.3327 185.799 98.5134 186.239C106.541 187.863 97.2667 198.529 95.9086 201.335C91.6999 210.028 91.9841 217.666 92.1098 227.044C92.2055 234.171 93.6864 246.186 90.0933 252.637C86.2632 259.506 77.9559 255.045 73.3188 250.98C67.4665 245.847 63.0465 237.674 63.8405 229.856Z" fill="black"/>
<path fill-rule="evenodd" clip-rule="evenodd" d="M204.759 270.345C204.759 277.99 210.964 272.814 210.743 267.376C210.418 259.37 204.469 264.3 204.759 270.345ZM237.748 228.079C230.957 234.187 225.718 237.614 224.409 247.006C223.418 254.12 224.403 261.166 224.445 268.332C224.516 280.344 214.816 292.972 204.378 279.203C196.764 269.16 199.495 253.368 205.704 243.274C208.962 237.979 213.613 232.74 218.986 229.44C223.027 226.956 234.395 222.069 237.748 228.079Z" fill="black"/>
<path fill-rule="evenodd" clip-rule="evenodd" d="M142.899 413.204C142.112 415.067 140.263 422.673 144.035 420.953C147.364 419.433 145.207 414.391 142.899 413.204ZM122.972 389.721C122.39 386.861 122.627 368.931 127.566 370.276C131.445 371.33 132.086 380.508 133.666 383.702C139.551 395.597 153.058 403.004 157.716 415.281C162.915 428.991 147.196 429.417 138.855 423.865C128.979 417.291 123.265 401.194 122.972 389.721Z" fill="black"/>
<path fill-rule="evenodd" clip-rule="evenodd" d="M110.866 316.203C113.009 313.309 113.226 311.763 112.004 309.203C110.442 310.902 110.719 313.33 110.866 316.203ZM112.417 329.148C101.243 330.399 100.684 309.808 102.597 302.738C104.121 297.107 107.397 291.057 110.77 286.469C111.451 285.543 117.911 277.224 119.177 277.204C124.037 277.127 122.702 282.618 122.177 284.662C120.526 291.102 119.872 296.484 120.316 303.624C120.793 311.264 124.411 329.402 112.417 329.148Z" fill="black"/>
<path fill-rule="evenodd" clip-rule="evenodd" d="M619.748 150.821C603.771 164.22 588.603 178.726 571.23 190.446C562.729 196.182 553.842 201.256 545.359 207.085C541.039 210.054 536.631 212.712 531.838 214.894C527.604 216.822 524.836 217.073 528.349 212.497C530.697 209.44 535.96 207.31 539.159 205.137C544.081 201.79 548.73 198.078 553.908 195.109C563.036 189.872 572.109 185.644 580.523 179.222C587.992 173.523 595.697 167.959 602.825 161.902C605.882 159.305 616.017 147.381 619.748 150.821Z" fill="black"/>
<path fill-rule="evenodd" clip-rule="evenodd" d="M620.071 199.203C627.256 205.349 609.279 222.187 605.179 226.003C600.856 230.028 596.095 233.618 591.393 237.183C589.738 238.439 580.708 246.842 578.416 246.164C573.894 244.825 579.831 239.373 581.375 237.952C586.368 233.348 591.468 228.88 596.35 224.152C600.753 219.892 605.521 215.947 609.779 211.549C613.228 207.986 616.126 201.949 620.071 199.203Z" fill="black"/>
<path fill-rule="evenodd" clip-rule="evenodd" d="M87.748 446.959C85.872 442.612 82.5123 447.438 84.2156 449.609C85.8265 451.664 87.5081 447.794 87.748 446.959ZM76.748 438.375C77.7537 431.983 80.0779 428.431 86.0744 433.887C90.1949 437.636 98.4821 448.297 97.6957 454.109C96.6635 461.732 88.2673 459.569 83.9149 455.583C79.4536 451.497 77.4841 444.043 76.748 438.375Z" fill="black"/>
<path fill-rule="evenodd" clip-rule="evenodd" d="M89.8879 564.178C82.5421 563.619 76.2751 557.979 73.1556 551.37C70.5309 545.812 68.0466 536.853 77.2677 539.774C83.2775 541.679 106.445 565.074 89.8879 564.178Z" fill="black"/>
<path fill-rule="evenodd" clip-rule="evenodd" d="M178.912 527.944C173.235 529.237 167.62 525.498 164.129 521.282C161.957 518.656 156.902 509.451 159.449 505.662C162.999 500.377 168.359 511 170.208 513.103C173.108 516.396 182.592 522.694 178.912 527.944Z" fill="black"/>
<path fill-rule="evenodd" clip-rule="evenodd" d="M184.025 384.204C179.575 382.139 175.444 379.653 173.654 374.721C172.516 371.58 171.56 362.161 176.614 362.204C182.46 362.256 195.846 383.261 184.025 384.204Z" fill="black"/>
<path fill-rule="evenodd" clip-rule="evenodd" d="M152.827 286.206C158.785 286.098 160.196 289.384 161.024 294.105C161.587 297.309 164.316 308.186 161.482 310.414C157.432 313.598 150.989 306.303 149.687 303.439C147.003 297.543 150.714 291.744 152.827 286.206Z" fill="black"/>
<path fill-rule="evenodd" clip-rule="evenodd" d="M255.206 612.341C258.107 613.661 264.707 616.588 262.185 621.13C259.548 625.88 251.977 621.264 249.149 619.188C247.965 618.319 240.443 612.631 240.758 610.724C241.421 606.67 251.79 611.96 255.206 612.341Z" fill="black"/>
<path fill-rule="evenodd" clip-rule="evenodd" d="M64.0744 315.711C66.0568 320.675 68.2883 337.729 57.8491 328.52C54.6634 325.709 54.1826 322.199 55.2802 318.34C56.8673 312.748 59.177 313.857 64.0744 315.711Z" fill="black"/>
<path fill-rule="evenodd" clip-rule="evenodd" d="M617.286 252.203C614.974 247.48 620.681 244.434 623.731 241.39C625.722 239.402 634.095 228.619 636.84 229.228C642.487 230.481 620.062 250.097 617.286 252.203Z" fill="black"/>
<path fill-rule="evenodd" clip-rule="evenodd" d="M152.752 594.289C158.199 593.415 159.47 599.465 162.979 602.102C164.484 603.234 169.65 604.228 168.611 606.63C165.881 612.936 152.485 598.529 152.752 594.289Z" fill="black"/>
<path fill-rule="evenodd" clip-rule="evenodd" d="M198.748 451.395C202.492 449.828 213.298 458.246 210.195 461.883C205.557 467.324 199.012 454.372 198.748 451.395Z" fill="black"/>
<path fill-rule="evenodd" clip-rule="evenodd" d="M277.665 573.189C274.936 573.46 263.419 569.84 267.686 564.993C270.682 561.588 278.644 570.107 277.665 573.189Z" fill="black"/>
<path fill-rule="evenodd" clip-rule="evenodd" d="M139.748 549.931C137.039 551.014 127.267 548.786 130.339 544.542C133.266 540.502 139.752 546.577 139.748 549.931Z" fill="black"/>
<path fill-rule="evenodd" clip-rule="evenodd" d="M219.748 568.24C222.916 567.911 225.204 569.821 225.748 573.055C221.786 573.62 220.564 572.678 219.748 568.24Z" fill="black"/>
<path fill-rule="evenodd" clip-rule="evenodd" d="M631.748 98.6938C633.086 98.6998 634.422 98.7068 635.748 98.7128C634.408 98.7058 633.079 98.6998 631.748 98.6938Z" fill="black"/>
<path fill-rule="evenodd" clip-rule="evenodd" d="M610.748 377.199C608.747 377.201 606.747 377.205 604.748 377.207C606.749 377.203 608.749 377.201 610.748 377.199Z" fill="black"/>
<path fill-rule="evenodd" clip-rule="evenodd" d="M337.887 51.2034C337.795 53.2057 337.703 55.208 337.609 57.2034C337.699 55.1994 337.793 53.2005 337.887 51.2034Z" fill="black"/>
<path fill-rule="evenodd" clip-rule="evenodd" d="M957.554 391.203C958.192 393.428 957.258 393.797 954.748 392.309C955.682 391.94 956.618 391.572 957.554 391.203Z" fill="black"/>
<path fill-rule="evenodd" clip-rule="evenodd" d="M900.748 565.694C901.752 565.7 902.755 565.707 903.748 565.713C902.741 565.707 901.745 565.7 900.748 565.694Z" fill="black"/>
<path fill-rule="evenodd" clip-rule="evenodd" d="M710.748 404.728C709.071 406.006 707.403 406.186 705.748 404.66C707.415 404.684 709.081 404.706 710.748 404.728Z" fill="black"/>
<path fill-rule="evenodd" clip-rule="evenodd" d="M673.313 234.203C673.271 235.872 673.228 237.54 673.184 239.203C673.226 237.532 673.27 235.867 673.313 234.203Z" fill="black"/>
<path fill-rule="evenodd" clip-rule="evenodd" d="M759.748 79.903C758.081 79.902 756.413 79.9 754.748 79.898C756.416 79.274 758.083 79.479 759.748 79.903Z" fill="black"/>
<path fill-rule="evenodd" clip-rule="evenodd" d="M270.748 59.5564C269.082 59.6544 267.414 59.7524 265.748 59.8504C267.414 59.7524 269.082 59.6544 270.748 59.5564Z" fill="black"/>
<path fill-rule="evenodd" clip-rule="evenodd" d="M311.748 59.8734C310.415 59.7604 309.08 59.6464 307.748 59.5334C309.08 59.6464 310.413 59.7604 311.748 59.8734Z" fill="black"/>
<path fill-rule="evenodd" clip-rule="evenodd" d="M333.748 61.4583C332.415 61.9553 331.082 62.2493 329.748 61.4653C331.082 61.4633 332.415 61.4603 333.748 61.4583Z" fill="black"/>
<path fill-rule="evenodd" clip-rule="evenodd" d="M214.748 64.1965C213.08 64.5355 211.414 64.8745 209.748 65.2105C211.416 64.8745 213.082 64.5355 214.748 64.1965Z" fill="black"/>
<path fill-rule="evenodd" clip-rule="evenodd" d="M674.316 471.203C674.27 472.205 674.224 473.206 674.18 474.203C674.227 473.2 674.271 472.201 674.316 471.203Z" fill="black"/>
<path fill-rule="evenodd" clip-rule="evenodd" d="M123.221 390.203C123.241 390.871 123.26 391.539 123.278 392.203C123.256 391.533 123.24 390.868 123.221 390.203Z" fill="black"/>
<path fill-rule="evenodd" clip-rule="evenodd" d="M963.748 386.615L958.748 386.641C960.411 385.399 962.078 385.557 963.748 386.615Z" fill="black"/>
<path fill-rule="evenodd" clip-rule="evenodd" d="M621.748 379.534C620.413 379.314 619.08 379.094 617.748 378.874C619.08 379.094 620.415 379.314 621.748 379.534Z" fill="black"/>
<path fill-rule="evenodd" clip-rule="evenodd" d="M255.748 612.19C254.081 611.866 252.415 611.54 250.748 611.216L255.748 612.19Z" fill="black"/>
<path fill-rule="evenodd" clip-rule="evenodd" d="M592.293 325.203C592.262 324.202 592.231 323.201 592.201 322.203C592.231 323.204 592.262 324.204 592.293 325.203Z" fill="black"/>
<path fill-rule="evenodd" clip-rule="evenodd" d="M275.748 59.8878C274.748 59.7648 273.747 59.6418 272.748 59.5188C273.747 59.6418 274.748 59.7648 275.748 59.8878Z" fill="black"/>
<path fill-rule="evenodd" clip-rule="evenodd" d="M439.748 35.158C438.748 34.855 437.747 34.552 436.748 34.249C437.748 34.552 438.748 34.855 439.748 35.158Z" fill="black"/>
<path fill-rule="evenodd" clip-rule="evenodd" d="M558.748 709.643C559.417 709.684 560.087 709.725 560.748 709.765C560.076 709.724 559.411 709.683 558.748 709.643Z" fill="black"/>
<path fill-rule="evenodd" clip-rule="evenodd" d="M99.748 172.663C100.752 172.689 101.756 172.716 102.748 172.743C101.739 172.716 100.744 172.689 99.748 172.663Z" fill="black"/>
<path fill-rule="evenodd" clip-rule="evenodd" d="M770.748 80.8793C769.081 80.7623 767.415 80.6453 765.748 80.5273C767.416 80.6453 769.081 80.7623 770.748 80.8793Z" fill="black"/>
<path fill-rule="evenodd" clip-rule="evenodd" d="M243.748 76.1975C241.409 76.2015 239.073 76.2055 236.748 76.2095C239.092 76.2055 241.42 76.2015 243.748 76.1975Z" fill="black"/>
<path fill-rule="evenodd" clip-rule="evenodd" d="M716.199 282.203C716.229 283.872 716.262 285.541 716.295 287.203C716.265 285.533 716.235 283.867 716.199 282.203Z" fill="black"/>
<path fill-rule="evenodd" clip-rule="evenodd" d="M593.748 640.235C592.41 640.215 591.075 640.193 589.748 640.171C591.088 640.189 592.418 640.213 593.748 640.235Z" fill="black"/>
<path fill-rule="evenodd" clip-rule="evenodd" d="M735.748 110.397C737.748 110.175 739.747 109.953 741.748 109.731C739.828 111.429 737.755 110.299 735.748 110.397Z" fill="black"/>
<path fill-rule="evenodd" clip-rule="evenodd" d="M582.748 640.758C581.745 640.72 580.743 640.683 579.748 640.647C580.755 640.685 581.751 640.721 582.748 640.758Z" fill="black"/>
<path fill-rule="evenodd" clip-rule="evenodd" d="M548.172 658.203C548.222 659.873 548.273 661.541 548.324 663.203C548.275 661.53 548.223 659.867 548.172 658.203Z" fill="black"/>
<path fill-rule="evenodd" clip-rule="evenodd" d="M700.748 171.801C702.082 171.677 703.415 171.553 704.748 171.43C703.531 172.368 702.102 171.819 700.748 171.801Z" fill="black"/>
<path fill-rule="evenodd" clip-rule="evenodd" d="M263.748 437.836C265.081 438.082 266.416 438.326 267.748 438.57C266.415 438.326 265.081 438.082 263.748 437.836Z" fill="black"/>
<path fill-rule="evenodd" clip-rule="evenodd" d="M471.748 174.707C473.412 173.289 475.079 173.443 476.748 174.691C475.081 174.695 473.415 174.701 471.748 174.707Z" fill="black"/>
<path fill-rule="evenodd" clip-rule="evenodd" d="M409.176 225.203C409.224 224.536 409.271 223.869 409.322 223.203C409.276 223.871 409.226 224.537 409.176 225.203Z" fill="black"/>
<path fill-rule="evenodd" clip-rule="evenodd" d="M700.227 206.203C700.241 207.539 700.254 208.874 700.269 210.203C700.256 208.864 700.242 207.534 700.227 206.203Z" fill="black"/>
<path fill-rule="evenodd" clip-rule="evenodd" d="M259.032 415.234C261.226 415.978 265.639 418.225 268.196 417.927C270.243 417.688 271.93 415.2 273.904 415.203C279.219 415.21 278.233 421.354 275.665 424.652C268.72 433.574 253.201 423.9 259.032 415.234Z" fill="black"/>
<path fill-rule="evenodd" clip-rule="evenodd" d="M280.725 383.203C287.973 385.074 284.363 401.017 278.27 402.113C271.096 403.405 269.846 390.441 271.263 385.755C274.955 387.949 272.669 395.775 277.322 393.612C280.281 392.235 279.831 385.869 280.725 383.203Z" fill="black"/>
</svg>
